<?xml version="1.0" encoding="iso-8859-1"?>
<!-- Uploaded to: SVG Repo, www.svgrepo.com, Generator: SVG Repo Mixer Tools -->
<svg height="800px" width="800px" version="1.1" id="Layer_1" xmlns="http://www.w3.org/2000/svg" xmlns:xlink="http://www.w3.org/1999/xlink" 
	 viewBox="0 0 512 512" xml:space="preserve">
<polygon style="fill:#E54728;" points="387.016,279.883 387.016,12.39 124.982,12.39 124.982,279.883 37.794,279.883 256,499.61 
	474.204,279.883 "/>
<polygon style="fill:#F95428;" points="103.278,307.141 152.24,307.141 152.24,39.648 359.758,39.648 359.758,307.141 
	408.721,307.141 256,460.926 "/>
<path style="fill:#F9A493;" d="M334.679,204.295c-6.842,0-12.39-5.547-12.39-12.39v-123.9c0-6.843,5.548-12.39,12.39-12.39
	s12.39,5.547,12.39,12.39v123.9C347.069,198.748,341.521,204.295,334.679,204.295z"/>
<g>
	<path style="fill:#333333;" d="M208.159,218.817c-26.524,0-48.104-21.58-48.104-48.104s21.58-48.103,48.104-48.103
		s48.104,21.58,48.104,48.103S234.684,218.817,208.159,218.817z M208.159,147.39c-12.861,0-23.324,10.463-23.324,23.323
		c0,12.86,10.463,23.324,23.324,23.324c12.861,0,23.324-10.463,23.324-23.324C231.484,157.852,221.02,147.39,208.159,147.39z"/>
	<path style="fill:#333333;" d="M303.84,314.498c-26.524,0-48.104-21.58-48.104-48.104s21.58-48.103,48.104-48.103
		s48.103,21.58,48.103,48.103S330.365,314.498,303.84,314.498z M303.84,243.071c-12.861,0-23.324,10.463-23.324,23.323
		c0,12.86,10.463,23.324,23.324,23.324s23.323-10.463,23.323-23.324C327.162,253.533,316.7,243.071,303.84,243.071z"/>
	<path style="fill:#333333;" d="M210.546,276.398c-3.171,0-6.342-1.209-8.761-3.629c-4.838-4.838-4.838-12.684,0-17.522
		l90.908-90.908c4.84-4.838,12.682-4.838,17.523,0c4.838,4.838,4.838,12.684,0,17.522l-90.908,90.908
		C216.888,275.187,213.716,276.398,210.546,276.398z"/>
	<path style="fill:#333333;" d="M256,512c-3.301,0-6.465-1.317-8.792-3.66L29.003,288.614c-3.526-3.55-4.569-8.872-2.646-13.491
		c1.923-4.619,6.434-7.628,11.438-7.628h74.798V12.39c0-6.843,5.547-12.39,12.39-12.39h262.034c6.842,0,12.39,5.547,12.39,12.39
		v255.103h74.798c5.003,0,9.517,3.01,11.438,7.629c1.923,4.619,0.878,9.942-2.648,13.491L264.79,508.34
		C262.465,510.683,259.3,512,256,512z M67.559,292.273l188.439,189.753l188.439-189.753h-57.423c-6.842,0-12.39-5.547-12.39-12.39
		V24.78H137.372v255.103c0,6.843-5.547,12.39-12.39,12.39H67.559z"/>
</g>
<circle style="fill:#F9A493;" cx="386.095" cy="314.569" r="12.39"/>
</svg>