<?xml version="1.0" encoding="iso-8859-1"?>
<!-- Uploaded to: SVG Repo, www.svgrepo.com, Generator: SVG Repo Mixer Tools -->
<svg height="800px" width="800px" version="1.1" id="Layer_1" xmlns="http://www.w3.org/2000/svg" xmlns:xlink="http://www.w3.org/1999/xlink" 
	 viewBox="0 0 511.981 511.981" xml:space="preserve">
<g>
	<path style="fill:#EAAD7A;" d="M120.581,507.647c-2.719,0-5.453-1.031-7.531-3.125c-4.172-4.156-4.172-10.921,0-15.077
		l36.889-36.904c4.156-4.171,10.921-4.171,15.077,0c4.172,4.156,4.172,10.905,0,15.077l-36.889,36.904
		C126.034,506.616,123.316,507.647,120.581,507.647z"/>
	<path style="fill:#EAAD7A;" d="M14.993,402.075c-2.718,0-5.453-1.047-7.531-3.125c-4.171-4.172-4.171-10.922,0-15.093
		l36.904-36.904c4.156-4.172,10.921-4.172,15.078,0c4.171,4.171,4.171,10.921,0,15.077L22.54,398.95
		C20.462,401.028,17.727,402.075,14.993,402.075z"/>
</g>
<path style="fill:#F4BE8E;" d="M508.881,3.174c-2.077-2.102-4.952-3.242-7.905-3.148c-0.875,0.023-21.733,0.765-54.825,8.437
	c-54.7,12.694-101.135,34.506-130.446,50.567c-59.505,32.584-114.33,76.574-162.952,130.728
	C92.208,257.192,41.133,340.672,0.963,437.901c-3.344,8.047,2.172,16.296,14.218,29.623c6.609,7.297,13.406,13.938,14.375,14.906
	c1.031,1.047,7.14,7.28,14.03,13.562c14.625,13.343,20.515,15.952,25.749,15.968l0,0c1.656,0,3.265-0.312,4.75-0.938
	c97.151-40.154,180.616-91.183,248.041-151.695c54.154-48.591,98.121-103.377,130.729-162.835
	c55.699-101.581,58.996-181.866,59.121-185.443C512.068,8.111,510.959,5.267,508.881,3.174z"/>
<path style="opacity:0.2;fill:#FFFFFF;enable-background:new    ;" d="M452.853,196.492
	c55.699-101.581,58.996-181.866,59.121-185.443c0.094-2.938-1.016-5.781-3.094-7.875c-2.077-2.102-4.952-3.242-7.905-3.148
	c-0.234,0.008-1.719,0.055-4.343,0.25c-1.344,18.312-9.656,91.409-58.857,181.139c-32.607,59.45-76.59,114.244-130.742,162.835
	c-67.427,60.513-150.875,111.541-248.026,151.695c-1.5,0.608-3.094,0.921-4.75,0.921c0,0,0,0-0.016,0
	c-5.218,0-11.125-2.608-25.749-15.951c-2.281-2.094-4.484-4.172-6.437-6.062c3.843,3.984,6.875,6.953,7.5,7.578
	c1.031,1.047,7.14,7.28,14.03,13.562c14.625,13.343,20.515,15.952,25.749,15.968l0,0c1.656,0,3.265-0.312,4.75-0.938
	c97.151-40.154,180.616-91.183,248.041-151.695C376.279,310.736,420.246,255.95,452.853,196.492z"/>
<path style="fill:#ED5564;" d="M127.628,395.028c-2.734,0-5.468-1.031-7.546-3.125c-4.171-4.156-4.171-10.921,0-15.077
	L493.679,3.228c4.172-4.164,10.921-4.164,15.092,0c4.156,4.164,4.156,10.922,0,15.085l-373.628,373.59
	C133.065,393.997,130.346,395.028,127.628,395.028z"/>
<path style="fill:#FFD2A6;" d="M22.024,500.616c-2.719,0-5.453-1.047-7.531-3.125c-4.171-4.171-4.171-10.92,0-15.076l60.341-60.342
	c4.156-4.155,10.906-4.155,15.077,0c4.172,4.172,4.172,10.922,0,15.094l-60.325,60.324
	C27.492,499.569,24.758,500.616,22.024,500.616z"/>
</svg>