<?xml version="1.0" encoding="UTF-8"?>
<svg width="220px" height="77px" viewBox="0 0 220 77" version="1.1" xmlns="http://www.w3.org/2000/svg" xmlns:xlink="http://www.w3.org/1999/xlink">
    <!-- Generator: Sketch 55.2 (78181) - https://sketchapp.com -->
    <title>logo</title>
    <desc>Created with Sketch.</desc>
    <g id="页面1" stroke="none" stroke-width="1" fill="none" fill-rule="evenodd">
        <g id="index" transform="translate(-98.000000, -16.000000)" fill="#4D4F53" fill-rule="nonzero">
            <g id="header" transform="translate(98.000000, 16.000000)">
                <g id="logo">
                    <path d="M70.0488763,32.9647017 C68.6990915,32.9647017 67.5792404,33.4345721 66.6868639,34.3724976 C65.7947947,35.3122384 65.3481454,36.515506 65.3481454,37.9835107 C65.3481454,39.4636176 65.8018649,40.6805002 66.7105335,41.6344612 C67.6182799,42.5893298 68.7362866,43.0664616 70.0642462,43.0664616 C71.4349341,43.0664616 72.5710773,42.5974989 73.4732905,41.6586657 C74.376426,40.7198326 74.8273789,39.4896374 74.8273789,37.9683828 C74.8273789,36.4791992 74.376426,35.2723009 73.4732905,34.3495033 C72.5710773,33.4267057 71.4294009,32.9647017 70.0488763,32.9647017 L70.0488763,32.9647017 Z M74.6361773,29.4405224 L79,29.4405224 L79,46.5594776 L74.6361773,46.5594776 L74.6361773,44.7504917 C73.7846847,45.5474257 72.930733,46.1216782 72.0740146,46.4729464 C71.2163741,46.8239121 70.2877246,47 69.2877587,47 C67.0412938,47 65.0988455,46.142252 63.4597992,44.4270586 C61.8198306,42.7118653 61,40.580354 61,38.0316172 C61,35.3881801 61.7933944,33.2218748 63.3798757,31.533609 C64.9654348,29.8444355 66.8925131,29 69.1595737,29 C70.2025753,29 71.1819455,29.1948465 72.0976843,29.5824215 C73.0125009,29.9699965 73.8593825,30.5527205 74.6364847,31.3278705 L74.6364847,29.4405224 L74.6361773,29.4405224 Z" id="形状"></path>
                    <path d="M92.0491837,32.9943608 C90.6993989,32.9943608 89.5795478,33.4677462 88.6871713,34.4126881 C87.7951021,35.3594589 87.3484528,36.5717279 87.3484528,38.0507144 C87.3484528,39.5418937 87.8021723,40.7678796 88.7108409,41.7289769 C89.6185873,42.6909888 90.736594,43.1716898 92.0645536,43.1716898 C93.4349341,43.1716898 94.5713847,42.6992189 95.4735979,41.7533625 C96.3767334,40.8075062 96.8276863,39.5681082 96.8276863,38.0354734 C96.8276863,36.5351496 96.3767334,35.3192227 95.4735979,34.3895218 C94.5713847,33.4598209 93.4297083,32.9943608 92.0491837,32.9943608 L92.0491837,32.9943608 Z M96.6361773,29.4438179 L101,29.4438179 L101,53 L96.6361773,53 L96.6361773,44.8683178 C95.7846847,45.6712136 94.930733,46.2497619 94.0740146,46.6036578 C93.2163741,46.957249 92.2877246,47.1346542 91.2877587,47.1346542 C89.0412938,47.1346542 87.0988455,46.2704896 85.4597992,44.5424652 C83.8198306,42.8144408 83,40.6669842 83,38.0991808 C83,35.4359688 83.7933944,33.2534578 85.3798757,31.5525624 C86.9654348,29.8507525 88.8925131,29 91.1595737,29 C92.2025753,29 93.1819455,29.1963041 94.0976843,29.5867784 C95.0125009,29.9772528 95.8593825,30.5643361 96.6364847,31.3452848 L96.6364847,29.4438179 L96.6361773,29.4438179 Z" id="形状"></path>
                    <path d="M107,30 L111.330497,30 L111.330497,37.981977 C111.330497,39.5353137 111.440924,40.6147113 111.661175,41.2192911 C111.881125,41.823871 112.234733,42.2934163 112.722906,42.6290987 C113.210174,42.9630236 113.810584,43.1314506 114.523232,43.1314506 C115.236785,43.1314506 115.842626,42.9653669 116.340454,42.6358358 C116.838281,42.3063046 117.207277,41.8212347 117.448648,41.181212 C117.626961,40.7037579 117.716872,39.6832366 117.716872,38.1196478 L117.716872,30 L122,30 L122,37.0226752 C122,39.9163982 121.764965,41.8971001 121.293688,42.9627307 C120.71832,44.2635732 119.871108,45.2615401 118.752052,45.9560453 C117.633297,46.652308 116.210415,47 114.484009,47 C112.611574,47 111.097876,46.5943105 109.941709,45.781467 C108.786145,44.9692093 107.973027,43.8373796 107.502655,42.3842204 C107.167753,41.3792236 107.000302,39.5508383 107.000302,36.9008219 L107.000302,30 L107,30 Z" id="路径"></path>
                    <path d="M135.048876,32.9647017 C133.699091,32.9647017 132.57924,33.4345721 131.686864,34.3724976 C130.794795,35.3122384 130.348145,36.515506 130.348145,37.9835107 C130.348145,39.4636176 130.801865,40.6805002 131.710534,41.6344612 C132.61828,42.5893298 133.736287,43.0664616 135.064246,43.0664616 C136.434627,43.0664616 137.571077,42.5974989 138.473291,41.6586657 C139.376426,40.7198326 139.827379,39.4896374 139.827379,37.9683828 C139.827379,36.4791992 139.376426,35.2723009 138.473291,34.3495033 C137.571077,33.4267057 136.429401,32.9647017 135.048876,32.9647017 L135.048876,32.9647017 Z M139.636177,29.4405224 L144,29.4405224 L144,46.5594776 L139.636177,46.5594776 L139.636177,44.7504917 C138.784685,45.5474257 137.930733,46.1216782 137.074015,46.4729464 C136.216374,46.8239121 135.287725,47 134.287759,47 C132.041294,47 130.098846,46.142252 128.459799,44.4270586 C126.819831,42.7118653 126,40.580354 126,38.0316172 C126,35.3881801 126.793394,33.2218748 128.379876,31.533609 C129.965435,29.8444355 131.892513,29 134.159574,29 C135.202575,29 136.181945,29.1948465 137.097684,29.5824215 C138.012501,29.9699965 138.859382,30.5527205 139.636485,31.3278705 L139.636485,29.4405224 L139.636177,29.4405224 Z" id="形状"></path>
                    <polygon id="路径" points="151.19154 23 155.463869 23 155.463869 29.1943411 158 29.1943411 158 32.8242161 155.463869 32.8242161 155.463869 46 151.19154 46 151.19154 32.8242161 149 32.8242161 149 29.1943411 151.19154 29.1943411"></polygon>
                    <path d="M168.968301,33.0430639 C167.63026,33.0430639 166.516996,33.5074883 165.626687,34.4357319 C164.736379,35.3648833 164.291377,36.5521154 164.291377,37.9992436 C164.291377,39.4893349 164.731222,40.6962332 165.61061,41.6190308 C166.489998,42.5418285 167.604476,43.0038324 168.952224,43.0038324 C170.301185,43.0038324 171.423246,42.536685 172.319014,41.6029953 C173.213873,40.6696082 173.661605,39.468761 173.661605,37.9992436 C173.661605,36.5315415 173.22176,35.3388634 172.342372,34.4196964 C171.462681,33.5023448 170.337889,33.0430639 168.968301,33.0430639 M168.897622,29 C170.516861,29 172.039637,29.4039131 173.464433,30.2114366 C174.889533,31.0198679 176.000977,32.1151228 176.80089,33.4999244 C177.599892,34.8847259 178,36.3799607 178,37.9844183 C178,39.5994655 177.596859,41.1110383 176.7927,42.5164137 C175.98854,43.9214866 174.892263,45.0203721 173.503868,45.8118602 C172.115472,46.604256 170.584809,47 168.913699,47 C166.452384,47 164.351135,46.1271242 162.610863,44.3807675 C160.870591,42.6344108 160,40.5125813 160,38.0164893 C160,35.3409813 160.983434,33.1129545 162.950302,31.3281731 C164.675407,29.7763602 166.657443,29 168.897622,29" id="形状"></path>
                    <path d="M182,29.4261936 L186.24327,29.4261936 L186.24327,31.1248169 C187.205149,30.3301342 188.077357,29.7765219 188.858398,29.4660303 C189.63944,29.1555387 190.43991,29 191.257119,29 C192.933085,29 194.355877,29.5744094 195.525198,30.7211779 C196.5083,31.6960043 197,33.1386185 197,35.047263 L197,46 L192.80336,46 L192.80336,38.7418199 C192.80336,36.7637542 192.712492,35.450902 192.531654,34.8015059 C192.350816,34.1521099 192.035769,33.6582525 191.585617,33.3181763 C191.136361,32.9775143 190.580396,32.8079156 189.918618,32.8079156 C189.060758,32.8079156 188.323954,33.0891156 187.709702,33.65298 C187.094554,34.2159657 186.667417,34.994538 186.430086,35.988111 C186.305741,36.5062805 186.243867,37.6261006 186.243867,39.3507935 L186.243867,46 L182.000598,46 L182.000598,29.4261936 L182,29.4261936 Z" id="路径"></path>
                    <path d="M215.681625,35.8610327 C215.397026,34.9071198 214.836923,34.1298911 214.000101,33.5314643 C213.16237,32.9339451 212.192494,32.6356394 211.087137,32.6356394 C209.886915,32.6356394 208.834599,32.9714603 207.928977,33.642497 C207.36069,34.0624244 206.834532,34.8012303 206.3502,35.8613352 L215.681625,35.8613352 L215.681625,35.8610327 Z M219.98424,39.2428399 L206.161377,39.2428399 C206.361111,40.4596612 206.89424,41.4268858 207.760461,42.1460266 C208.627591,42.8651674 209.733856,43.2233764 211.078651,43.2233764 C212.685918,43.2233764 214.067689,42.6624647 215.223964,41.5394312 L218.849181,43.2394111 C217.945377,44.5185559 216.863359,45.4655103 215.602519,46.0790641 C214.341679,46.692618 212.843523,47 211.110172,47 C208.419977,47 206.229268,46.1522791 204.538046,44.4586527 C202.845914,42.7641186 202,40.6423961 202,38.0946954 C202,35.4825534 202.842883,33.3136345 204.529862,31.5888463 C206.215932,29.8628479 208.330566,29 210.873765,29 C213.573658,29 215.769823,29.8628479 217.461954,31.5888463 C219.15348,33.3139371 220,35.5926785 220,38.4244655 L219.98424,39.2428399 Z" id="形状"></path>
                    <path d="M33.1859322,46.3584437 L27.6082625,46.3593437 L19.1391387,60.9777438 L16.2432294,55.9142633 L21.8577292,46.3575438 L21.8568381,46.3575438 L10.8226812,46.3575438 L7.92944512,41.2967631 L29.0621574,41.3021625 L29.0639395,41.2994628 L36.0788713,41.2967631 L33.1859322,46.3584437 Z M22.0234643,11.0454668 L36.345295,36.0973965 L30.636047,36.0946968 L30.6351559,36.0973965 L30.6342649,36.0946968 L30.5543675,36.0946968 L22.0234643,21.1718278 L16.3869853,31.0324162 L16.3887674,31.0324162 L21.8699068,31.0324162 L24.763143,36.092297 L7.70846497,36.0859977 L22.0234643,11.0454668 Z M22.0314837,0 L0,38.4959504 L21.9691103,77 L44,38.5040496 L22.0314837,0 Z" id="形状"></path>
                </g>
            </g>
        </g>
    </g>
</svg>